<?xml version="1.0" standalone="no"?>
<!DOCTYPE svg PUBLIC "-//W3C//DTD SVG 20010904//EN"
 "http://www.w3.org/TR/2001/REC-SVG-20010904/DTD/svg10.dtd">
<svg version="1.0" xmlns="http://www.w3.org/2000/svg"
 width="276.000000pt" height="276.000000pt" viewBox="0 0 276.000000 276.000000"
 preserveAspectRatio="xMidYMid meet">
<metadata>
Created by potrace 1.16, written by Peter Selinger 2001-2019
</metadata>
<g transform="translate(0.000000,276.000000) scale(0.100000,-0.100000)"
fill="#000000" stroke="none">
<path d="M1150 2695 c-442 -76 -812 -350 -1000 -740 -95 -197 -132 -356 -132
-570 -2 -371 128 -685 391 -945 201 -199 420 -317 701 -377 120 -25 411 -25
529 0 561 121 965 519 1077 1062 25 121 25 374 1 497 -82 413 -347 758 -725
948 -110 54 -264 104 -381 124 -114 19 -353 20 -461 1z m-10 -320 c20 -22 25
-23 32 -10 14 23 27 18 41 -17 13 -31 14 -32 21 -10 9 28 32 29 39 1 4 -15 11
-19 25 -15 27 9 33 -13 32 -104 -1 -41 -1 -84 0 -95 l1 -20 9 20 c5 11 9 34 9
51 1 47 21 96 37 90 7 -3 16 3 19 14 5 17 73 60 95 60 6 0 10 -7 10 -15 0 -8
5 -15 10 -15 6 0 10 -15 10 -34 0 -25 5 -36 19 -41 16 -5 19 -12 14 -40 -4
-28 -2 -35 11 -35 18 0 21 -17 6 -40 -6 -9 -5 -17 2 -21 30 -19 -41 -126 -127
-189 -85 -63 -89 -76 -82 -268 4 -89 9 -167 13 -173 3 -6 15 7 26 28 12 21 41
64 66 96 l44 59 -11 55 c-6 31 -11 78 -11 104 0 39 4 49 25 63 14 9 30 14 36
10 6 -3 24 10 41 30 16 20 35 36 42 36 7 0 21 9 31 20 25 28 45 25 45 -5 0
-16 6 -25 16 -25 11 0 14 -5 9 -17 -4 -12 3 -9 22 10 16 15 39 27 50 27 12 0
24 4 27 9 3 4 17 6 31 3 20 -3 24 -9 20 -23 -4 -11 -2 -19 5 -19 8 0 8 -6 -1
-21 -11 -22 -20 -60 -20 -91 0 -10 -9 -23 -19 -28 -22 -12 -16 -42 6 -33 8 3
14 -1 14 -10 0 -52 -141 -118 -268 -125 l-83 -5 -38 -56 c-90 -132 -99 -174
-101 -451 -1 -107 -4 -226 -8 -265 -7 -68 -8 -70 -36 -73 -24 -3 -28 -1 -22
15 4 10 10 136 13 280 7 298 6 302 -74 427 l-44 68 -87 -4 c-87 -5 -189 7
-305 37 -32 8 -61 15 -63 15 -2 0 -4 8 -4 18 0 10 -5 23 -12 30 -9 9 -9 15 0
24 9 9 8 16 -5 30 -46 51 -24 149 29 132 12 -3 18 0 18 10 0 21 20 20 50 -4
30 -24 40 -25 40 -5 0 17 9 19 30 5 9 -6 17 -5 23 3 5 8 26 -8 67 -52 33 -35
60 -61 60 -57 0 4 -10 26 -21 48 -14 27 -18 43 -11 46 7 2 9 15 5 33 -6 34 14
47 46 29 17 -9 21 -8 21 5 0 23 18 18 36 -10 16 -24 18 -25 36 -8 18 16 19 16
25 -5 3 -13 12 -21 21 -20 25 4 46 -127 35 -209 l-10 -64 46 -65 c43 -62 46
-65 49 -39 2 15 -1 88 -7 162 -9 111 -15 140 -32 166 -44 63 -74 87 -148 118
-99 40 -177 89 -160 100 10 6 9 12 -4 27 -22 25 -21 32 4 32 15 0 19 4 15 16
-5 13 -1 15 18 12 34 -7 40 24 15 73 -23 46 -24 59 -5 59 11 0 13 9 9 35 -5
31 -3 35 16 35 17 0 21 6 21 33 0 55 22 62 60 22z m-233 -1136 c45 -42 66 -98
71 -184 6 -104 -10 -159 -58 -207 -32 -32 -44 -38 -81 -38 -95 0 -143 64 -143
190 -1 85 19 152 65 225 30 47 30 47 75 42 28 -3 55 -13 71 -28z m-327 4 c31
-18 50 -51 50 -88 0 -38 -34 -32 -59 10 -23 39 -40 44 -64 17 -74 -82 -64
-307 14 -307 17 0 29 9 41 34 22 43 14 61 -27 61 -39 0 -63 23 -46 44 12 14
123 46 159 46 31 0 35 -28 7 -46 -20 -13 -25 -25 -25 -56 0 -86 -73 -162 -136
-141 -126 42 -121 362 6 425 43 22 45 22 80 1z m680 -12 c0 -18 -107 -377
-119 -401 -11 -20 -40 -25 -46 -8 -2 7 -34 93 -70 191 -36 99 -65 186 -63 195
4 21 38 22 49 2 5 -8 30 -73 55 -143 26 -70 48 -126 50 -125 2 2 24 71 50 153
25 83 51 153 57 157 16 9 37 -2 37 -21z m444 20 c9 -15 36 -253 36 -322 0 -73
-14 -99 -52 -99 -29 0 -96 72 -133 143 -16 31 -33 57 -37 57 -4 0 -5 -35 -1
-79 7 -94 0 -131 -26 -131 -10 0 -22 7 -25 16 -3 9 -6 98 -6 199 0 152 3 184
15 189 17 6 45 -19 45 -39 0 -22 119 -251 141 -270 19 -18 19 -17 18 56 0 41
-6 117 -13 169 -13 96 -9 120 20 120 7 0 15 -4 18 -9z m600 3 c8 -3 18 -22 21
-42 4 -21 13 -70 21 -109 13 -61 19 -73 35 -73 28 0 37 -30 14 -46 -17 -13
-17 -16 9 -79 29 -66 29 -95 2 -95 -19 0 -38 30 -61 95 -10 28 -22 54 -26 58
-3 5 -32 6 -62 2 l-55 -7 -30 -71 c-32 -77 -53 -100 -74 -79 -12 12 -8 29 26
112 4 10 -2 19 -16 25 -35 15 -35 43 -1 51 15 3 35 8 43 10 8 2 35 52 60 110
41 98 65 144 75 144 2 0 10 -3 19 -6z m-387 -26 c115 -32 169 -100 161 -202
-5 -65 -39 -120 -99 -162 -43 -30 -136 -65 -153 -58 -8 3 -10 62 -7 190 l3
186 -29 -6 c-37 -9 -63 15 -43 39 7 8 23 15 36 15 12 0 26 5 30 11 7 11 16 10
101 -13z"/>
<path d="M796 1179 c-44 -74 -59 -214 -31 -270 32 -62 109 -58 139 6 38 78 27
208 -21 265 -33 39 -63 39 -87 -1z"/>
<path d="M1877 1027 c-3 -83 -3 -154 -1 -156 9 -9 100 57 121 88 61 90 20 189
-88 215 l-26 6 -6 -153z"/>
</g>
</svg>
